<svg xmlns="http://www.w3.org/2000/svg" width="430" height="430" style="width:100%;height:100%;transform:translate3d(0,0,0);content-visibility:visible" viewBox="0 0 430 430"><defs><clipPath id="a"><path d="M0 0h430v430H0z"/></clipPath><clipPath id="b"><path d="M0 0h430v430H0z"/></clipPath></defs><g clip-path="url(#a)"><g clip-path="url(#b)" style="display:block"><g style="display:block"><path fill="#EBE6EF" d="M239.157 313.109v38.841c0 6.62-5.38 12-12 12h-.15c-6.63 0-12-5.38-12-12 0 6.62-5.37 12-12 12h-.15c-6.63 0-12-5.38-12-12v-38.841l-43.08-97.479V138.7a3 3 0 0 1 3-3h16.53a3 3 0 0 1 3 3v48.6l22.63-28.46v-52.191c0-22.63 5.27-44.949 15.38-65.189l4.005-7.999c1.107-2.21 4.261-2.209 5.366.001l3.999 7.998a145.775 145.775 0 0 1 15.39 65.193v52.187l22.63 28.46v-48.6a3 3 0 0 1 3-3h16.53a3 3 0 0 1 3 3v76.93l-43.08 97.479z" class="primary"/><path fill="#EBE6EF" d="M.02-21.37v42.74h-.04v-42.74h.04z" class="primary" opacity=".5" style="mix-blend-mode:multiply" transform="translate(192.958 137.47)"/><path fill="#3A3347" d="M190.848 346.56v43.841a3 3 0 0 1-2.399 2.939l-39.265 8.027a3 3 0 0 1-3.447-1.991l-5.475-16.423a3 3 0 0 1 1.182-3.444l49.404-32.949zm98.895 36.394-5.483 16.424a2.999 2.999 0 0 1-3.446 1.989l-39.266-8.027a3 3 0 0 1-2.399-2.939V346.56l49.412 32.948a3 3 0 0 1 1.182 3.446z" class="secondary"/><path fill="#3A3347" d="m10.64 12.321-12.204 2.497a3 3 0 0 1-3.447-1.991l-5.475-16.423A3 3 0 0 1-9.304-7.04L2.45-14.879l8.19 27.2z" class="secondary" opacity=".5" style="mix-blend-mode:multiply" transform="translate(150.748 386.549)"/><path fill="#3A3347" d="M7.49-14.685v39.36l-12.58-2.57a3 3 0 0 1-2.4-2.939v-43.841l14.98 9.99z" class="secondary" opacity=".5" style="mix-blend-mode:multiply" transform="translate(246.638 371.235)"/><path fill="#EBE6EF" d="M7.955 44.235c-1.18.39-2.44.6-3.76.6h-.15c-6.62 0-12-5.38-12-12v-69.67l12.09-8 3.82 2.54-8.25 5.46v69.67c0 5.31 3.46 9.82 8.25 11.4z" class="primary" opacity=".5" style="mix-blend-mode:multiply" transform="translate(198.803 319.134)"/><path fill="#EBE6EF" d="M7.955 44.235c-1.18.39-2.44.6-3.76.6h-.15c-6.62 0-12-5.38-12-12v-69.67l12.09-8 3.82 2.54-8.25 5.46v69.67c0 5.31 3.46 9.82 8.25 11.4z" class="primary" opacity=".5" style="mix-blend-mode:multiply" transform="translate(222.958 319.134)"/><path fill="#EBE6EF" d="M5.63-49.415v98.83H-5.63v-95.83a3 3 0 0 1 3-3h8.26z" class="primary" opacity=".5" style="mix-blend-mode:multiply" transform="translate(153.43 185.108)"/><path fill="#EBE6EF" d="M5.63-49.415v98.83H-5.63v-95.83a3 3 0 0 1 3-3h8.26z" class="primary" opacity=".5" style="mix-blend-mode:multiply" transform="translate(265.324 185.108)"/><path fill="#3A3347" d="m349.219 302.967-13.862 23.507a2.998 2.998 0 0 1-2.584 1.476h-31.176l-.05-.02-.01-.01-3.5-1.93-22.612-12.505a2.997 2.997 0 0 0-1.452-.375h-34.816v-30.83l-12.07-8-12.08 8-12.07-8-12.08 8v30.83H156.04c-.507 0-1.006.129-1.45.374l-22.683 12.526v.01l-3.49 1.92v.01H97.231a2.998 2.998 0 0 1-2.584-1.476l-13.862-23.507a3 3 0 0 1 .236-3.391l66.756-83.946 22.53-28.33 22.63-28.46h44.14l22.63 28.46 22.53 28.33 66.746 83.946a3 3 0 0 1 .236 3.391z" class="secondary"/><path fill="#3A3347" d="m68.364-84.555-22.63 28.46-22.53 28.33-66.756 83.946a3 3 0 0 0-.236 3.391l14.732 24.983h-22.446a2.998 2.998 0 0 1-2.584-1.476l-13.862-23.507a3 3 0 0 1 .236-3.391L-.956-27.765l22.53-28.33 22.64-28.46h24.15z" class="secondary" opacity=".5" style="mix-blend-mode:multiply" transform="translate(148.734 243.391)"/><path fill="#EBE6EF" d="M237.073 158.84v79.58l-19.515 31.709c-1.171 1.903-3.939 1.903-5.11 0l-19.515-31.709v-79.58h44.14zM131.907 287.81v38.21l-3.49 1.92v.01h-3.51v-40.14c0-1.93 1.57-3.5 3.5-3.5s3.5 1.57 3.5 3.5zm173.13 0v40.14h-3.44l-.05-.02-.01-.01-3.5-1.93v-38.18c0-1.93 1.57-3.5 3.5-3.5s3.5 1.57 3.5 3.5z" class="primary"/><path fill="#EBE6EF" d="M-6.545 7.21v79.53l14.31 23.25-5.205 8.458c-1.171 1.904-3.938 1.904-5.11 0L-22.065 86.74V7.21l.04-.05v-52.19c0-22.63 5.27-44.95 15.38-65.19l4.006-7.999c1.107-2.21 4.26-2.209 5.365.001l3.999 7.998c.37.73.73 1.47 1.08 2.21a145.538 145.538 0 0 0-14.31 62.98v9.43h28.57V7.14h-28.57v.02l-.04.05z" class="primary" opacity=".5" style="mix-blend-mode:multiply" transform="translate(215.003 151.7)"/></g><path fill="none" stroke="#EBE6EF" stroke-linecap="round" stroke-linejoin="round" stroke-width="7" d="M0 0" class="primary" style="display:block" transform="rotate(1 -12210.791 12425.77)"/></g></g></svg>